<?xml version="1.0" encoding="UTF-8"?>
<svg id="Layer_2" data-name="Layer 2" xmlns="http://www.w3.org/2000/svg" viewBox="0 0 231.35 94.2">
  <defs>
    <style>
      .cls-1 {
        fill: #0ed1c1;
      }

      .cls-2 {
        letter-spacing: -.12em;
      }

      .cls-3 {
        letter-spacing: -.09em;
      }

      .cls-4 {
        letter-spacing: -.08em;
      }

      .cls-5 {
        letter-spacing: -.09em;
      }

      .cls-6 {
        letter-spacing: -.08em;
      }

      .cls-7 {
        letter-spacing: -.08em;
      }

      .cls-8 {
        font-family: MTNBrighterSans-ExtraBold, 'MTN Brighter Sans';
        font-size: 49.33px;
      }

      .cls-8, .cls-9 {
        fill: #fff;
        font-weight: 700;
      }

      .cls-10 {
        letter-spacing: -.1em;
      }

      .cls-9 {
        font-family: MTNBrighterSans-Bold, 'MTN Brighter Sans';
        font-size: 27.4px;
      }

      .cls-11 {
        letter-spacing: -.08em;
      }
    </style>
  </defs>
  <g id="Artboard_13" data-name="Artboard 13">
    <g>
      <text class="cls-8" transform="translate(.05 83.1)"><tspan class="cls-7" x="0" y="0">T</tspan><tspan class="cls-5" x="27.72" y="0">E</tspan><tspan class="cls-11" x="56.04" y="0">CH </tspan><tspan class="cls-2" x="127.46" y="0">F</tspan><tspan class="cls-4" x="152.23" y="0">AIR</tspan></text>
      <text class="cls-9" transform="translate(0 32.96)"><tspan class="cls-3" x="0" y="0">G</tspan><tspan class="cls-6" x="17.13" y="0">hana</tspan><tspan class="cls-10" x="77.39" y="0">’</tspan><tspan class="cls-6" x="82.13" y="0">s</tspan></text>
      <g>
        <path class="cls-1" d="M149.88,25.41c1.58,0,2.97-.97,2.97-2.71,0-1.83-1.48-2.91-3.18-2.91s-3.06,.97-3.06,2.71,1.58,2.91,3.27,2.91Z"/>
        <path class="cls-1" d="M159.52,22.7c0-.64,.12-1.26,.34-1.85l-2.44-.18c.43,.66,.68,1.43,.68,2.31,0,3.31-3.4,5.92-8.19,5.92h-.62l-2.19,3.17c1.82-1.14,4.29-2.03,6.89-2.03,2.32,0,4.77,.74,5.82,3.61l2.67-6.15c-1.82-1.11-2.97-2.8-2.97-4.8Z"/>
        <path class="cls-1" d="M128.63,17.5c0-.97-.77-1.71-1.98-1.71h-4.39v3.31h4.36c1.27,0,2.01-.6,2.01-1.6Z"/>
        <path class="cls-1" d="M127.11,22.96h-4.85v3.4h4.82c1.48,0,2.16-.74,2.16-1.77s-.71-1.63-2.13-1.63Z"/>
        <path class="cls-1" d="M167.8,19.79c-1.64,0-3.06,.97-3.06,2.71s1.58,2.91,3.27,2.91c1.58,0,2.97-.97,2.97-2.71,0-1.83-1.48-2.91-3.18-2.91Z"/>
        <path class="cls-1" d="M186.37,19.53c-1.36,0-2.87,.63-3.46,2.14h6.21c-.22-1.29-1.17-2.14-2.75-2.14Z"/>
        <path class="cls-1" d="M103.82,0V43.47h124.97V0H103.82Zm24.21,30.47h-11.37V11.67h10.35c4.29,0,7.41,1.66,7.41,5,0,1.86-1.05,3.46-2.87,4.17,2.19,.74,3.46,2.31,3.46,4.09,0,3.94-3.43,5.54-6.98,5.54Zm12.82,0h-5.47v-13.29l5.47-1v14.29Zm-2.78-15.17c-1.76,0-3.09-1.11-3.09-2.71,0-1.51,1.33-2.74,3.09-2.74s3.15,1.23,3.15,2.74c0,1.6-1.39,2.71-3.15,2.71Zm63.27,15.8c-3.17,0-6.25-.97-8.08-1.93-1.69,1.09-4.01,1.93-6.88,1.93-5.34,0-8.96-2.83-8.96-7.2,0-1.09,.23-2.11,.66-3.04l-2.54-.19c.43,.66,.68,1.43,.68,2.31,0,3.31-3.4,5.92-8.19,5.92h-.62l-2.19,3.17c1.82-1.14,4.29-2.03,6.89-2.03,2.84,0,5.9,1.11,6.3,5.92l-5.72,.66c-.31-2-1.48-2.37-2.97-2.37-1.98,0-4.63,.66-6.86,1.89l-2.83-1.66c.11,.45,.19,.95,.24,1.49l-5.72,.66c-.31-2-1.48-2.37-2.97-2.37-1.98,0-4.63,.66-6.86,1.89l-3.31-1.94,2.9-6.69c-1.82-1.11-2.97-2.8-2.97-4.8,0-3.51,3.52-6.49,8.4-6.49,1.2,0,2.29,.17,3.24,.49h7.88v2.38c1.46-1.72,3.97-2.87,7.01-2.87,1.2,0,2.29,.17,3.24,.49h7.88v2.63c1.59-1.98,4.23-3.23,7.35-3.23,3.93,0,6.73,1.99,7.32,5.01,.06-3.17,2.83-5.01,7.5-5.01,2.01,0,4.54,.46,6.24,1.09v3.74c-1.54-.86-4.11-1.4-6.18-1.4-1.54,0-2.6,.26-2.6,.97s1.02,.71,2.72,.91c3.15,.37,7.32,.94,7.32,4.69,0,3.06-2.72,5-7.38,5Zm18.2-10.52l-5-.03v9.92h-5.47V12.76l5.47-1v4.94h5v3.89Z"/>
        <path class="cls-1" d="M200.55,25.76c-3.28-.38-6.11-1.16-6.71-3.54,0,.05,0,.09,0,.14,0,1.06-.22,1.97-.53,2.63h-10.29c.65,1.46,2.22,2.26,4.6,2.26,1.64,0,3.27-.51,4.63-1.11l1.45,2.02,.9-1.96c1.76,.77,4.33,1.4,6.61,1.4,1.48,0,2.5-.2,2.5-.91,0-.77-1.11-.69-3.18-.91Z"/>
      </g>
    </g>
  </g>
</svg>