<?xml version="1.0" encoding="UTF-8"?>
<svg id="Layer_2" data-name="Layer 2" xmlns="http://www.w3.org/2000/svg" viewBox="0 0 29.1 29.1">
  <defs>
    <style>
      .cls-1 {
        fill: #0ed1c1;
      }

      .cls-2 {
        fill: #fff;
      }

      .cls-3 {
        fill: #08018b;
      }
    </style>
  </defs>
  <g id="Layer_1-2" data-name="Layer 1">
    <g>
      <circle class="cls-3" cx="14.55" cy="14.55" r="14.05"/>
      <path class="cls-2" d="M14.55,1c7.47,0,13.55,6.08,13.55,13.55s-6.08,13.55-13.55,13.55S1,22.02,1,14.55,7.08,1,14.55,1m0-1C6.51,0,0,6.51,0,14.55s6.51,14.55,14.55,14.55,14.55-6.51,14.55-14.55S22.59,0,14.55,0h0Z"/>
    </g>
    <g>
      <path class="cls-1" d="M17.89,14.33c0,.97,0,1.93,0,2.9,0,1.29,1.23,2.15,2.44,1.71,.66-.24,1.13-.91,1.13-1.62,0-1.63,0-3.25,0-4.88,0-.28,.25-.44,.51-.3,.03,.02,.06,.07,.07,.11,.01,.06,0,.12,0,.17,0,1.61,0,3.21,0,4.82,0,.93-.44,1.64-1.25,2.09-1.49,.82-3.33-.19-3.44-1.87-.05-.67-.04-1.35-.04-2.02,0-1.19,0-2.37,0-3.56,0-.25,0-.27-.26-.26-.87,0-1.74,0-2.6,.02-.18,0-.25-.07-.25-.25,0-.29,0-.31,.24-.31,1.07,0,2.14,0,3.21,0,.2,0,.25,.08,.25,.26,0,1,0,2,0,2.99h0Z"/>
      <path class="cls-1" d="M16.29,14.96c0-.86,0-1.72,0-2.58,0-.24,.01-.25,.27-.25,.26,0,.27,.01,.27,.26,0,1.6,0,3.2,0,4.8,0,.62,.14,1.22,.52,1.72,.66,.87,1.53,1.29,2.64,1.17,1.05-.12,1.82-.67,2.25-1.63,.16-.36,.25-.77,.25-1.16,.03-1.62,.01-3.24,.01-4.86,0-.09,.03-.25,.08-.27,.14-.03,.29-.02,.44,0,.03,0,.06,.13,.06,.2,0,.55,0,1.1,0,1.65,0,1,0,2.01,0,3.01,0,.56-.08,1.1-.31,1.61-.31,.67-.77,1.2-1.42,1.57-.72,.41-1.48,.54-2.29,.39-.88-.16-1.61-.6-2.14-1.33-.45-.62-.67-1.3-.66-2.07,.02-.74,0-1.49,0-2.23Z"/>
      <path class="cls-1" d="M19.37,14.5c0-.9,0-1.8,0-2.7,0-.17,.03-.34,.03-.5,0-.19,.1-.22,.26-.22,.86,0,1.71,0,2.57,0,.23,0,.45,0,.68,0,.14,0,.2,.05,.2,.19,.01,.39,.02,.39-.37,.39-.83,0-1.66,0-2.49,0-.24,0-.25,.01-.25,.25,0,1.73,0,3.46,0,5.19,0,.47-.05,.94-.34,1.33-.04,.06-.15,.14-.2,.13-.14-.03-.27-.11-.4-.18,0,0,.02-.09,.04-.13,.18-.3,.28-.62,.28-.97,0-.93,0-1.85,0-2.78Z"/>
      <path class="cls-1" d="M15.83,15c0,.8-.01,1.61,0,2.41,.02,.96,.36,1.8,1.03,2.48,.23,.24,.51,.43,.77,.64,.03,.02,.05,.05,.07,.08-.04,0-.07,.03-.11,.02-.24-.02-.49-.03-.73-.07-.11-.02-.23-.09-.32-.17-.87-.91-1.31-2-1.31-3.26,0-1.57,0-3.13,0-4.7,0-.1,.02-.26,.07-.27,.14-.03,.29-.03,.43,0,.04,0,.07,.15,.07,.24,0,.87,0,1.74,0,2.6Z"/>
      <path class="cls-1" d="M14.78,14.97c0,.78,0,1.57,0,2.35,0,.89,.25,1.71,.69,2.48,.02,.03,.02,.08,.03,.11-.03-.02-.07-.03-.1-.06-.69-.63-1.12-1.38-1.18-2.33-.02-.26-.03-.53-.03-.79,0-1.45,0-2.9,0-4.35,0-.25,0-.25,.29-.25,.28,0,.29,0,.29,.26,0,.86,0,1.72,0,2.58Z"/>
      <path class="cls-1" d="M18.34,10.54c-1.42-.09-2.83-.29-4.22-.65-1.24-.33-2.44-.78-3.58-1.39-.18-.1-.34-.24-.46-.4-.16-.21,0-.57,.26-.63,.01,0,.06,.04,.06,.06-.04,.37,0,.42,.32,.59,1.93,1.03,4,1.61,6.17,1.87,.53,.06,1.07,.1,1.6,.15,.15,.01,.21,.06,.2,.21,0,.15-.08,.19-.21,.19-.05,0-.09,0-.15,0Z"/>
      <path class="cls-1" d="M21,14.87c0,.81,0,1.62,0,2.43,0,.49-.24,.85-.65,1.1-.03,.02-.08,.02-.12,.03,0-.04,0-.08,.01-.11,.19-.45,.21-.93,.21-1.41,0-1.49,0-2.98,0-4.47,0-.28,.22-.42,.46-.29,.05,.03,.08,.14,.08,.22,0,.84,0,1.67,0,2.51Z"/>
      <path class="cls-1" d="M7.55,9.98c-.16,.49,.13,.69,.47,.9,1.36,.82,2.83,1.41,4.36,1.84,.11,.03,.23-.01,.35-.03,.04,0,.08-.03,.13-.04,.26-.06,.51,.07,.59,.29,.08,.19-.01,.43-.2,.53-.21,.12-.54,.08-.67-.12-.11-.17-.25-.22-.42-.27-1.2-.34-2.36-.78-3.47-1.36-.36-.19-.72-.39-1.06-.61-.44-.29-.48-.78-.07-1.13Z"/>
      <path class="cls-1" d="M6.08,13.33c.31,.89,1.1,1.27,1.83,1.68,1.23,.69,2.54,1.17,3.89,1.55,.22,.06,.27,.17,.16,.36-.03,.04-.15,.06-.21,.04-.69-.22-1.39-.43-2.06-.69-.87-.33-1.74-.68-2.53-1.18-.43-.27-.83-.57-1.04-1.06-.1-.23-.1-.47-.03-.71Z"/>
      <path class="cls-1" d="M16.68,8.82c0,.21-.13,.38-.36,.45-.21,.06-.46-.01-.56-.2-.07-.12-.15-.17-.28-.21-1.14-.32-2.26-.73-3.3-1.29-.14-.08-.28-.18-.39-.3-.12-.13-.1-.29,.04-.39,.13-.1,.29-.16,.44-.24,.02,0,.05,0,.07,0-.01,.02-.02,.06-.04,.07-.27,.21-.16,.38,.09,.51,1.03,.54,2.11,.95,3.24,1.25,.1,.03,.23,0,.32-.04,.33-.16,.73,.05,.73,.4Z"/>
      <path class="cls-1" d="M7.43,19.37c.34,.22,.68,.49,1.06,.67,1.06,.5,2.15,.93,3.3,1.19,.09,.02,.21-.02,.31-.06,.28-.12,.62,0,.69,.26,.07,.23-.03,.45-.25,.55-.21,.1-.49,.02-.64-.15-.07-.09-.18-.17-.28-.2-1.02-.3-2.06-.59-3-1.12-.45-.26-.86-.57-1.14-1.03-.03-.04-.05-.08-.06-.1Z"/>
      <path class="cls-1" d="M6.02,15.52c.26,.71,.8,1.05,1.37,1.36,.51,.27,1.04,.5,1.56,.73,.1,.04,.24,.04,.35,.02,.25-.06,.5,0,.61,.17,.14,.22,.09,.5-.13,.63-.24,.15-.6,.08-.71-.17-.08-.17-.21-.24-.37-.31-.63-.31-1.26-.61-1.86-.95-.46-.26-.76-.68-.83-1.23,0-.04-.01-.09-.01-.13,0-.02,0-.04,.02-.12Z"/>
      <path class="cls-1" d="M8.74,8.67c-.14,.35,.05,.54,.32,.68,.67,.34,1.34,.67,2.02,.99,.09,.04,.22,.03,.33,0,.17-.04,.33-.06,.48,.05,.16,.12,.25,.26,.2,.47-.05,.19-.19,.32-.42,.35-.2,.03-.39-.03-.48-.22-.09-.18-.23-.25-.4-.33-.63-.29-1.25-.6-1.87-.91-.09-.05-.18-.11-.26-.17-.39-.29-.36-.64,.08-.91Z"/>
      <path class="cls-1" d="M6.6,11.64c0,.05,.02,.09,.01,.12-.01,.31,.13,.54,.38,.7,.51,.31,1.03,.6,1.55,.88,.06,.04,.16,.01,.24,.02,.16,.01,.33-.01,.47,.05,.17,.08,.27,.24,.23,.45-.04,.19-.22,.35-.41,.37-.25,.03-.47-.06-.53-.26-.06-.19-.19-.25-.34-.34-.48-.28-.97-.55-1.43-.86-.4-.27-.45-.74-.16-1.14Z"/>
      <path class="cls-1" d="M6.45,17.47c.44,.57,1.04,.92,1.67,1.22,.3,.14,.61,.26,.92,.38,.46,.18,.92,.35,1.38,.51,.15,.05,.14,.14,.11,.25-.04,.12-.1,.19-.24,.13-.7-.28-1.4-.54-2.09-.84-.38-.16-.74-.37-1.08-.6-.36-.25-.56-.63-.66-1.06Z"/>
      <path class="cls-1" d="M14.12,23.46c-.69-.16-1.36-.28-2-.48-.54-.17-1.06-.41-1.57-.66-.25-.12-.45-.34-.67-.52-.03-.02-.03-.06-.05-.1,.03,0,.07,0,.1,.02,1.21,.63,2.5,.98,3.83,1.24,.12,.02,.24,.04,.37,.05,.16,.01,.21,.11,.17,.24-.02,.08-.11,.13-.18,.21Z"/>
      <path class="cls-1" d="M15.84,21.03c-.96-.13-1.93-.25-2.89-.38-.29-.04-.58-.12-.88-.18-.12-.02-.18-.08-.15-.21,.03-.13,.08-.2,.24-.17,.77,.13,1.54,.27,2.32,.38,.38,.06,.76,.07,1.14,.1,.18,.01,.34,.18,.32,.35,0,.03-.06,.06-.11,.11Z"/>
      <path class="cls-1" d="M14.24,19.03c-.01,.27-.06,.32-.27,.29-1.13-.15-2.24-.36-3.33-.67-.11-.03-.18-.07-.13-.2,.04-.12,.06-.24,.25-.2,.99,.21,1.98,.42,2.96,.62,.13,.03,.26,.03,.38,.06,.06,.02,.11,.08,.13,.1Z"/>
      <path class="cls-1" d="M13.61,15.21c.02,.15-.05,.2-.22,.17-1.07-.21-2.12-.49-3.14-.86-.1-.03-.2-.07-.12-.2,.06-.1,.05-.27,.26-.19,.99,.36,2.01,.63,3.05,.84,.15,.03,.17,.06,.18,.24Z"/>
      <path class="cls-1" d="M15.97,7.62c-.18-.05-.39-.09-.6-.15-.37-.12-.74-.24-1.1-.39-.14-.06-.27-.16-.37-.27-.18-.21-.12-.4,.13-.51,.06-.03,.13-.05,.2-.06,.02,0,.08,.06,.08,.08-.05,.25-.02,.34,.24,.42,.5,.17,1,.31,1.5,.47,.08,.03,.17,.04,.14,.16-.03,.11-.02,.25-.22,.24Z"/>
      <path class="cls-1" d="M20.22,9.33c.02,.17-.05,.25-.21,.23-.79-.08-1.58-.17-2.37-.25-.13-.01-.2-.04-.18-.2,.03-.15,.09-.22,.24-.2,.42,.06,.83,.11,1.25,.16,.35,.04,.71,.06,1.06,.07,.15,0,.23,.05,.2,.2Z"/>
      <path class="cls-1" d="M15.57,22.26c-.63-.08-1.26-.15-1.89-.23-.14-.02-.21-.08-.18-.23,.02-.15,.1-.18,.24-.16,.66,.08,1.32,.15,1.99,.21,.17,.02,.18,.11,.18,.24,0,.15-.07,.18-.2,.16-.04,0-.09,0-.14,0,0,0,0,.01,0,.02Z"/>
      <path class="cls-1" d="M13.52,11.54c-.27-.07-.56-.14-.84-.22-.14-.04-.1-.14-.07-.23,.03-.11,.07-.19,.21-.15,.27,.08,.54,.14,.8,.22,.05,.02,.12,.11,.11,.15-.02,.1,0,.25-.21,.24Z"/>
      <path class="cls-1" d="M13.96,17.22c0,.11-.03,.23-.19,.19-.13-.03-.34,.03-.36-.18,0-.1-.01-.27,.18-.26,.28,0,.38,.08,.38,.26Z"/>
    </g>
  </g>
</svg>