<?xml version="1.0" encoding="UTF-8"?>
<svg id="Layer_2" data-name="Layer 2" xmlns="http://www.w3.org/2000/svg" viewBox="0 0 388.68 153.88">
  <defs>
    <style>
      .cls-1 {
        fill: #0ed1c1;
      }

      .cls-2, .cls-3, .cls-4 {
        fill: #fff;
      }

      .cls-3 {
        font-family: Delight-Medium, Delight;
        font-size: 12.35px;
        font-variation-settings: 'wght' 500;
        font-weight: 500;
        letter-spacing: .5em;
      }

      .cls-5 {
        font-family: JanoSansPro-Bold, 'Jano Sans Pro';
      }

      .cls-5, .cls-4 {
        font-size: 45.29px;
        font-weight: 700;
      }

      .cls-6 {
        fill: #003dc8;
        letter-spacing: 0em;
      }

      .cls-4 {
        font-family: Delight-ExtraBold, Delight;
        font-variation-settings: 'wght' 800;
      }

      .cls-7 {
        letter-spacing: 0em;
      }

      .cls-8 {
        letter-spacing: 0em;
      }

      .cls-9 {
        letter-spacing: -.02em;
      }

      .cls-10 {
        letter-spacing: -.07em;
      }
    </style>
  </defs>
  <g id="Artboard_13" data-name="Artboard 13">
    <g>
      <g>
        <path class="cls-1" d="M106.34,72.34c0,8.63-.02,17.26,0,25.89,.03,11.56,10.98,19.21,21.85,15.28,5.88-2.13,10.11-8.13,10.12-14.44,.01-14.54,0-29.07,0-43.61,0-2.53,2.27-3.89,4.52-2.67,.29,.16,.53,.6,.61,.95,.11,.5,.06,1.04,.06,1.56,0,14.36,.07,28.73-.02,43.09-.06,8.36-3.94,14.7-11.2,18.68-13.29,7.29-29.76-1.66-30.79-16.73-.41-5.99-.33-12.03-.36-18.04-.05-10.6-.01-21.2-.02-31.8,0-2.28-.09-2.38-2.33-2.37-7.76,.03-15.52,.07-23.28,.14-1.61,.01-2.27-.6-2.21-2.28,.09-2.59,.08-2.73,2.16-2.73,9.56-.02,19.12,.03,28.67-.04,1.81-.01,2.25,.68,2.24,2.37-.06,8.92-.03,17.84-.03,26.76h0Z"/>
        <path class="cls-1" d="M92.07,77.97c0-7.7,0-15.4,0-23.1,0-2.17,.11-2.26,2.45-2.25,2.31,0,2.43,.09,2.43,2.28,0,14.3-.03,28.6,.02,42.91,.02,5.56,1.27,10.86,4.69,15.34,5.91,7.74,13.68,11.57,23.56,10.45,9.41-1.07,16.23-6.02,20.09-14.55,1.44-3.17,2.21-6.91,2.27-10.41,.25-14.47,.09-28.95,.13-43.42,0-.83,.31-2.28,.72-2.37,1.24-.29,2.63-.16,3.91,.07,.28,.05,.51,1.19,.52,1.83,.04,4.92,.02,9.84,.02,14.76,0,8.97,0,17.95,0,26.92,0,4.97-.71,9.82-2.78,14.38-2.73,6.01-6.92,10.72-12.69,14.05-6.4,3.7-13.27,4.79-20.43,3.52-7.9-1.39-14.35-5.36-19.09-11.92-3.98-5.52-6.01-11.63-5.87-18.5,.14-6.66,.03-13.32,.03-19.98Z"/>
        <path class="cls-1" d="M119.55,73.83c0-8.05-.01-16.1,.01-24.15,0-1.5,.28-3,.24-4.5-.04-1.73,.89-1.96,2.31-1.96,7.65,.03,15.29,.01,22.94,.02,2.03,0,4.06,.04,6.08,0,1.24-.03,1.75,.44,1.79,1.72,.11,3.49,.15,3.49-3.31,3.49-7.41,0-14.83,0-22.24,0-2.16,0-2.26,.1-2.26,2.26,0,15.46,.05,30.93-.04,46.39-.02,4.17-.45,8.37-3,11.93-.4,.56-1.32,1.25-1.83,1.13-1.25-.28-2.41-.98-3.56-1.6-.07-.03,.18-.83,.4-1.19,1.64-2.68,2.54-5.51,2.51-8.71-.08-8.28-.03-16.56-.03-24.84Z"/>
        <path class="cls-1" d="M87.89,78.31c0,7.18-.1,14.36,.03,21.54,.15,8.56,3.21,16.05,9.18,22.2,2.07,2.14,4.59,3.84,6.9,5.75,.25,.2,.44,.48,.66,.72-.32,.08-.64,.24-.95,.22-2.19-.16-4.39-.23-6.54-.62-1.01-.18-2.1-.8-2.82-1.55-7.81-8.14-11.73-17.84-11.67-29.17,.07-14.01,0-28.02,.04-42.03,0-.86,.21-2.35,.6-2.45,1.23-.31,2.63-.26,3.89,.02,.36,.08,.65,1.37,.65,2.11,.05,7.76,.03,15.52,.03,23.27Z"/>
        <path class="cls-1" d="M78.52,78c0,7.01-.03,14.01,0,21.02,.04,7.94,2.23,15.29,6.2,22.14,.17,.3,.21,.68,.31,1.02-.29-.16-.63-.28-.87-.5-6.15-5.59-10.03-12.34-10.55-20.78-.14-2.36-.28-4.73-.29-7.1-.03-12.97-.02-25.94,0-38.9,0-2.21,.09-2.27,2.61-2.27,2.51,0,2.59,.06,2.59,2.29,0,7.7,0,15.4,0,23.1Z"/>
        <path class="cls-1" d="M110.36,38.39c-12.66-.76-25.29-2.57-37.69-5.84-11.12-2.94-21.84-6.94-31.96-12.43-1.57-.85-3.03-2.15-4.12-3.57-1.45-1.88,.02-5.08,2.36-5.59,.13-.03,.52,.39,.51,.57-.32,3.31-.04,3.76,2.87,5.3,17.29,9.2,35.79,14.4,55.16,16.71,4.76,.57,9.54,.94,14.32,1.3,1.31,.1,1.87,.54,1.81,1.9-.06,1.3-.74,1.71-1.91,1.66-.4-.02-.81,0-1.35,0Z"/>
        <path class="cls-1" d="M134.13,77.13c0,7.24,.05,14.47-.02,21.71-.04,4.34-2.12,7.6-5.83,9.81-.31,.18-.72,.18-1.09,.26,.04-.33,.01-.68,.13-.97,1.7-4.04,1.91-8.32,1.91-12.61,.03-13.31,0-26.63,.01-39.94,0-2.5,1.98-3.79,4.16-2.58,.46,.26,.69,1.26,.7,1.93,.05,7.47,.03,14.93,.03,22.4Z"/>
        <path class="cls-1" d="M13.92,33.42c-1.45,4.4,1.15,6.18,4.2,8.02,12.19,7.36,25.27,12.57,38.93,16.43,.94,.27,2.07-.1,3.11-.23,.39-.05,.75-.31,1.14-.39,2.3-.49,4.52,.6,5.31,2.59,.67,1.71-.12,3.81-1.81,4.76-1.91,1.08-4.85,.73-5.98-1.08-.95-1.52-2.27-2-3.78-2.42-10.74-3.01-21.11-6.99-31.01-12.12-3.24-1.67-6.44-3.46-9.48-5.45-3.95-2.59-4.27-6.94-.63-10.1Z"/>
        <path class="cls-1" d="M.75,63.33c2.77,8,9.81,11.35,16.36,15.01,10.96,6.12,22.67,10.5,34.76,13.85,1.93,.53,2.43,1.56,1.4,3.26-.23,.38-1.32,.56-1.87,.39-6.17-1.98-12.39-3.85-18.44-6.15-7.79-2.96-15.53-6.08-22.64-10.53-3.85-2.41-7.46-5.12-9.33-9.51-.9-2.1-.87-4.18-.25-6.33Z"/>
        <path class="cls-1" d="M95.55,23.02c.03,1.89-1.18,3.38-3.24,3.98-1.92,.56-4.08-.11-5-1.81-.59-1.09-1.37-1.55-2.5-1.87-10.22-2.87-20.16-6.48-29.52-11.54-1.29-.7-2.52-1.64-3.51-2.72-1.04-1.14-.88-2.59,.38-3.51,1.19-.87,2.6-1.44,3.92-2.12,.17-.09,.44,0,.66,.02-.11,.22-.17,.51-.35,.65-2.38,1.91-1.45,3.36,.79,4.53,9.22,4.83,18.88,8.49,28.92,11.17,.88,.23,2.05,.05,2.89-.34,2.96-1.4,6.51,.46,6.56,3.55Z"/>
        <path class="cls-1" d="M12.84,117.32c3.07,1.96,6.09,4.37,9.48,5.98,9.47,4.5,19.24,8.29,29.51,10.61,.84,.19,1.9-.17,2.74-.53,2.49-1.08,5.53,.02,6.19,2.35,.59,2.09-.29,4-2.25,4.9-1.9,.87-4.37,.17-5.68-1.37-.66-.77-1.56-1.55-2.51-1.83-9.16-2.72-18.39-5.24-26.78-9.98-4.06-2.29-7.71-5.14-10.2-9.22-.23-.37-.42-.76-.51-.92Z"/>
        <path class="cls-1" d="M.21,82.97c2.28,6.33,7.17,9.41,12.23,12.13,4.53,2.44,9.27,4.47,13.98,6.55,.89,.39,2.12,.36,3.11,.14,2.28-.5,4.47,.02,5.49,1.56,1.28,1.94,.77,4.47-1.15,5.62-2.18,1.31-5.36,.71-6.38-1.48-.72-1.55-1.9-2.13-3.28-2.81-5.6-2.75-11.25-5.43-16.66-8.51-4.14-2.36-6.76-6.09-7.45-10.96-.06-.4-.1-.8-.13-1.21,0-.16,.06-.33,.21-1.04Z"/>
        <path class="cls-1" d="M24.51,21.74c-1.29,3.16,.42,4.84,2.83,6.05,6,3,12.01,5.97,18.07,8.83,.81,.38,2,.26,2.93,.02,1.54-.4,2.99-.5,4.31,.47,1.41,1.03,2.19,2.37,1.74,4.2-.42,1.72-1.7,2.89-3.73,3.14-1.79,.23-3.5-.31-4.31-1.94-.81-1.63-2.09-2.25-3.59-2.95-5.6-2.63-11.14-5.39-16.69-8.13-.82-.41-1.59-.96-2.33-1.52-3.46-2.59-3.23-5.76,.75-8.17Z"/>
        <path class="cls-1" d="M5.38,48.26c.05,.45,.14,.77,.12,1.08-.12,2.77,1.15,4.86,3.43,6.21,4.57,2.73,9.21,5.33,13.86,7.91,.57,.31,1.41,.12,2.13,.18,1.4,.11,2.95-.12,4.16,.42,1.52,.68,2.39,2.18,2.01,4.03-.34,1.67-1.95,3.1-3.63,3.28-2.21,.24-4.21-.55-4.77-2.32-.53-1.67-1.73-2.24-3.05-2.99-4.31-2.47-8.67-4.89-12.79-7.65-3.55-2.38-4.04-6.59-1.47-10.15Z"/>
        <path class="cls-1" d="M4.08,100.39c3.93,5.11,9.28,8.26,14.95,10.92,2.67,1.25,5.43,2.31,8.18,3.37,4.1,1.58,8.21,3.13,12.36,4.59,1.33,.47,1.29,1.22,.95,2.28-.36,1.11-.9,1.69-2.16,1.19-6.23-2.49-12.53-4.81-18.67-7.49-3.37-1.47-6.64-3.29-9.66-5.38-3.21-2.23-4.99-5.64-5.94-9.47Z"/>
        <path class="cls-1" d="M72.65,153.88c-6.19-1.45-12.13-2.49-17.85-4.28-4.82-1.51-9.46-3.68-14-5.94-2.22-1.1-4.03-3.05-6-4.64-.23-.19-.3-.57-.45-.87,.31,.06,.65,.06,.91,.2,10.78,5.62,22.37,8.73,34.2,11.1,1.07,.22,2.17,.36,3.26,.43,1.41,.09,1.89,.96,1.55,2.1-.2,.67-.98,1.18-1.63,1.89Z"/>
        <path class="cls-1" d="M87.98,132.15c-8.62-1.14-17.22-2.23-25.8-3.44-2.63-.37-5.21-1.07-7.82-1.59-1.09-.22-1.63-.68-1.3-1.92,.31-1.18,.76-1.8,2.16-1.55,6.89,1.2,13.79,2.41,20.71,3.44,3.37,.5,6.79,.66,10.19,.92,1.61,.12,3.08,1.62,2.86,3.16-.04,.3-.53,.54-.99,.98Z"/>
        <path class="cls-1" d="M73.73,114.27c-.11,2.41-.54,2.83-2.39,2.59-10.06-1.31-20-3.21-29.77-5.96-.96-.27-1.62-.61-1.17-1.8,.4-1.04,.57-2.11,2.21-1.76,8.82,1.9,17.66,3.72,26.49,5.55,1.13,.23,2.31,.24,3.43,.52,.53,.14,.97,.67,1.2,.85Z"/>
        <path class="cls-1" d="M68.09,80.14c.15,1.34-.46,1.77-1.95,1.48-9.55-1.87-18.93-4.36-28.09-7.66-.86-.31-1.78-.58-1.09-1.78,.51-.87,.41-2.38,2.31-1.69,8.87,3.24,17.98,5.65,27.24,7.5,1.37,.27,1.56,.53,1.58,2.16Z"/>
        <path class="cls-1" d="M89.18,12.28c-1.63-.41-3.51-.76-5.32-1.35-3.29-1.06-6.59-2.16-9.79-3.46-1.23-.5-2.44-1.39-3.3-2.4-1.57-1.84-1.04-3.58,1.18-4.55,.58-.25,1.2-.46,1.82-.52,.22-.02,.73,.51,.69,.71-.41,2.26-.14,3.02,2.1,3.77,4.43,1.48,8.91,2.79,13.38,4.16,.75,.23,1.53,.39,1.21,1.47-.28,.95-.2,2.2-1.95,2.16Z"/>
        <path class="cls-1" d="M127.14,27.62c.15,1.5-.48,2.19-1.9,2.04-7.07-.75-14.14-1.52-21.21-2.26-1.13-.12-1.83-.38-1.57-1.8,.24-1.35,.78-1.95,2.19-1.76,3.73,.49,7.45,1.01,11.19,1.39,3.16,.32,6.34,.49,9.51,.64,1.3,.06,2.03,.43,1.79,1.76Z"/>
        <path class="cls-1" d="M85.61,143.2c-5.62-.68-11.24-1.36-16.86-2.05-1.23-.15-1.88-.74-1.65-2.1,.22-1.34,.87-1.57,2.18-1.42,5.91,.7,11.83,1.3,17.76,1.84,1.52,.14,1.57,.98,1.58,2.11,.01,1.3-.65,1.59-1.77,1.43-.4-.06-.81,0-1.21,0,0,.06-.02,.12-.02,.19Z"/>
        <path class="cls-1" d="M67.28,47.32c-2.39-.62-4.96-1.26-7.52-1.97-1.23-.34-.91-1.23-.65-2.1,.29-.97,.62-1.72,1.9-1.36,2.39,.68,4.81,1.22,7.18,1.95,.44,.14,1.05,.97,.96,1.34-.2,.89-.09,2.26-1.87,2.13Z"/>
        <path class="cls-1" d="M71.24,98.15c.06,1-.25,2.02-1.7,1.68-1.2-.28-3.07,.27-3.26-1.64-.09-.86-.12-2.39,1.58-2.34,2.47,.07,3.44,.69,3.38,2.29Z"/>
      </g>
      <text class="cls-4" transform="translate(162.55 75.46)"><tspan x="0" y="0">ENR T</tspan><tspan class="cls-9" x="129.26" y="0">E</tspan><tspan x="155.75" y="0">CH</tspan><tspan class="cls-10" x="0" y="37.06">F</tspan><tspan x="23.42" y="37.06">AIR </tspan><tspan class="cls-8" x="108.06" y="37.06">2</tspan><tspan class="cls-7" x="136.5" y="37.06">0</tspan><tspan x="167.8" y="37.06">26</tspan></text>
      <text class="cls-5" transform="translate(325.83 136.03)"><tspan class="cls-2" x="0" y="0">.</tspan><tspan class="cls-1" x="12.09" y="0">.</tspan><tspan class="cls-6" x="24.18" y="0">.</tspan></text>
      <text class="cls-3" transform="translate(180.66 136.02)"><tspan x="0" y="0">5TH EDITION</tspan></text>
    </g>
  </g>
</svg>